<?xml version="1.0" encoding="utf-8"?>
<!-- Generator: Adobe Illustrator 16.0.4, SVG Export Plug-In . SVG Version: 6.00 Build 0)  -->
<!DOCTYPE svg PUBLIC "-//W3C//DTD SVG 1.1//EN" "http://www.w3.org/Graphics/SVG/1.1/DTD/svg11.dtd">
<svg version="1.1" id="Layer_1" xmlns="http://www.w3.org/2000/svg" xmlns:xlink="http://www.w3.org/1999/xlink" x="0px" y="0px"
	 width="85px" height="83px" viewBox="0 0 85 83" enable-background="new 0 0 85 83" xml:space="preserve">
<path d="M41.778,4.5C21.221,4.5,4.556,21.165,4.556,41.722s16.665,37.222,37.222,37.222S79,62.279,79,41.722S62.335,4.5,41.778,4.5z
	 M45.128,63.511h-8.674v-7.376h8.674V63.511z M53.492,39.317c-1.466,2.125-3.3,3.905-5.502,5.34c-1.2,0.925-1.987,1.854-2.36,2.788
	c-0.374,0.935-0.561,2.218-0.561,3.85h-8.586c0.02-2.753,0.428-4.769,1.225-6.048c0.796-1.278,2.385-2.833,4.765-4.662
	c1.396-1.141,2.513-2.37,3.349-3.688c0.835-1.318,1.254-2.793,1.254-4.426c0-1.81-0.478-3.226-1.431-4.249
	c-0.954-1.022-2.316-1.534-4.086-1.534c-1.456,0-2.69,0.433-3.703,1.298c-1.013,0.866-1.53,2.134-1.549,3.806h-8.379l-0.059-0.177
	c-0.059-3.777,1.185-6.668,3.732-8.674c2.547-2.006,5.866-3.009,9.958-3.009c4.406,0,7.863,1.117,10.371,3.349
	c2.508,2.232,3.762,5.267,3.762,9.102C55.69,34.882,54.957,37.193,53.492,39.317z"/>
</svg>
