<?xml version="1.0" encoding="utf-8"?>
<!-- Generator: Adobe Illustrator 16.0.4, SVG Export Plug-In . SVG Version: 6.00 Build 0)  -->
<!DOCTYPE svg PUBLIC "-//W3C//DTD SVG 1.1//EN" "http://www.w3.org/Graphics/SVG/1.1/DTD/svg11.dtd">
<svg version="1.1" id="Layer_1" xmlns="http://www.w3.org/2000/svg" xmlns:xlink="http://www.w3.org/1999/xlink" x="0px" y="0px"
	 width="83px" height="85px" viewBox="0 0 83 85" enable-background="new 0 0 83 85" xml:space="preserve">
<path d="M41.934,4.889c-20.558,0-37.223,16.665-37.223,37.223c0,20.557,16.665,37.222,37.223,37.222
	c20.557,0,37.222-16.665,37.222-37.222C79.156,21.554,62.491,4.889,41.934,4.889z"/>
<g>
	<path fill="#FFFFFF" d="M22.747,27.907h38.487L44.125,45.312c0,0-2.23,2.188-4.54-0.108L22.747,27.907z"/>
	<polygon fill="#FFFFFF" points="22.06,29.739 22.06,55.056 34.087,42.084 	"/>
	<polygon fill="#FFFFFF" points="49.779,42.084 61.808,29.739 61.808,55.056 	"/>
	<path fill="#FFFFFF" d="M22.747,56.315h38.296L48.596,42.913l-4.621,4.238c0,0-2.181,1.451-4.008,0l-4.855-4.363L22.747,56.315z"/>
</g>
</svg>
