<?xml version="1.0" encoding="utf-8"?>
<!-- Generator: Adobe Illustrator 16.0.4, SVG Export Plug-In . SVG Version: 6.00 Build 0)  -->
<!DOCTYPE svg PUBLIC "-//W3C//DTD SVG 1.1//EN" "http://www.w3.org/Graphics/SVG/1.1/DTD/svg11.dtd">
<svg version="1.1" id="Layer_1" xmlns="http://www.w3.org/2000/svg" xmlns:xlink="http://www.w3.org/1999/xlink" x="0px" y="0px"
	 width="83px" height="83px" viewBox="0 0 83 83" enable-background="new 0 0 83 83" xml:space="preserve">
<path d="M40.278,2.5C19.721,2.5,3.056,19.165,3.056,39.722s16.665,37.222,37.223,37.222c20.557,0,37.222-16.665,37.222-37.222
	S60.835,2.5,40.278,2.5z"/>
<path fill="#FFFFFF" d="M52.74,29.244c0-6.881-5.576-12.458-12.458-12.458c-6.881,0-12.458,5.577-12.458,12.458
	c0,0.281,0.023,0.556,0.042,0.833l-0.042,0c-0.383,3.905,12.583,32.583,12.583,32.583c4.583-8.226,8.804-20.868,10.896-27.614
	c0.738-1.4,1.221-2.955,1.377-4.606c0.002-0.002,0.004-0.013,0.004-0.013h-0.002C52.718,30.036,52.74,29.643,52.74,29.244z
	 M40.157,33.71c-2.969,0-5.375-2.406-5.375-5.375s2.406-5.375,5.375-5.375s5.375,2.406,5.375,5.375S43.126,33.71,40.157,33.71z"/>
</svg>
