<?xml version="1.0" encoding="utf-8"?>
<!-- Generator: Adobe Illustrator 16.0.4, SVG Export Plug-In . SVG Version: 6.00 Build 0)  -->
<!DOCTYPE svg PUBLIC "-//W3C//DTD SVG 1.1//EN" "http://www.w3.org/Graphics/SVG/1.1/DTD/svg11.dtd">
<svg version="1.1" id="Layer_1" xmlns="http://www.w3.org/2000/svg" xmlns:xlink="http://www.w3.org/1999/xlink" x="0px" y="0px"
	 width="83px" height="83px" viewBox="0 0 83 83" enable-background="new 0 0 83 83" xml:space="preserve">
<g>
	<path d="M41.251,1.268c-21.677,0-39.25,17.572-39.25,39.249c0,21.677,17.572,39.25,39.25,39.25
		c21.675,0,39.249-17.573,39.249-39.25C80.5,18.839,62.927,1.268,41.251,1.268z M61.871,54.08c0,1.508-1.388,2.735-3.096,2.735
		H23.73c-1.709,0-3.1-1.228-3.1-2.735V27.462c0-1.508,1.391-2.735,3.1-2.735h0.748v-2.228c0-1.339,1.089-2.429,2.43-2.429
		c1.341,0,2.431,1.09,2.431,2.429v2.228h23.829v-2.228c0-1.339,1.088-2.429,2.43-2.429c1.34,0,2.43,1.09,2.43,2.429v2.228h0.749
		c1.708,0,3.096,1.228,3.096,2.735V54.08z"/>
	<path d="M22.812,32.874l0.062,21.206c0,0.583,0.058,1.076,0.855,1.076h35.045c0.797,0,0.85-0.493,0.85-1.076l0.062-21.206H22.812z
		 M32.743,53.866h-6.641v-4.012h6.641V53.866z M32.743,48.702h-6.641v-4.013h6.641V48.702z M32.743,43.538h-6.641v-4.012h6.641
		V43.538z M32.743,38.374h-6.641v-4.012h6.641V38.374z M40.628,53.866h-6.64v-4.012h6.64V53.866z M40.628,48.702h-6.64v-4.013h6.64
		V48.702z M40.628,43.538h-6.64v-4.012h6.64V43.538z M40.628,38.374h-6.64v-4.012h6.64V38.374z M48.515,53.866h-6.64v-4.012h6.64
		V53.866z M48.515,48.702h-6.64v-4.013h6.64V48.702z M48.515,43.538h-6.64v-4.012h6.64V43.538z M48.515,38.374h-6.64v-4.012h6.64
		V38.374z M56.402,53.866h-6.641v-4.012h6.641V53.866z M56.402,48.702h-6.641v-4.013h6.641V48.702z M56.402,43.538h-6.641v-4.012
		h6.641V43.538z M56.402,38.374h-6.641v-4.012h6.641V38.374z"/>
</g>
</svg>
