<?xml version="1.0" encoding="utf-8"?>
<!-- Generator: Adobe Illustrator 16.0.4, SVG Export Plug-In . SVG Version: 6.00 Build 0)  -->
<!DOCTYPE svg PUBLIC "-//W3C//DTD SVG 1.1//EN" "http://www.w3.org/Graphics/SVG/1.1/DTD/svg11.dtd">
<svg version="1.1" id="Layer_1" xmlns="http://www.w3.org/2000/svg" xmlns:xlink="http://www.w3.org/1999/xlink" x="0px" y="0px"
	 width="96px" height="16px" viewBox="0 0 96 16" enable-background="new 0 0 96 16" xml:space="preserve">
<path d="M8.56,3.115c-2.699,0-4.888,2.188-4.888,4.889c0,2.7,2.189,4.888,4.888,4.888c2.7,0,4.89-2.188,4.89-4.888
	C13.45,5.303,11.26,3.115,8.56,3.115z M9,10.864h-1.14V9.896H9V10.864z M10.099,7.688C9.907,7.966,9.666,8.201,9.376,8.389
	C9.219,8.51,9.116,8.632,9.066,8.755C9.017,8.878,8.993,9.046,8.993,9.261H7.865c0.003-0.362,0.057-0.626,0.161-0.794
	s0.313-0.372,0.626-0.612c0.184-0.149,0.33-0.312,0.439-0.484c0.11-0.173,0.165-0.366,0.165-0.581c0-0.237-0.062-0.424-0.188-0.558
	C8.943,6.096,8.764,6.029,8.532,6.029c-0.191,0-0.354,0.058-0.486,0.171S7.844,6.48,7.842,6.7H6.741L6.733,6.676
	C6.726,6.18,6.889,5.8,7.224,5.537c0.334-0.263,0.771-0.395,1.308-0.395c0.578,0,1.032,0.146,1.362,0.439
	c0.329,0.293,0.494,0.691,0.494,1.195C10.388,7.105,10.292,7.409,10.099,7.688z"/>
<path d="M40.433,3.303c-2.596,0-4.7,2.104-4.7,4.701c0,2.596,2.104,4.701,4.7,4.701c2.597,0,4.701-2.104,4.701-4.701
	C45.134,5.407,43.03,3.303,40.433,3.303z M42.87,6.21l-2.16,2.197c0,0-0.282,0.277-0.573-0.014L38.01,6.21H42.87z M37.924,6.441
	L39.442,8l-1.519,1.638V6.441z M38.01,9.797l1.562-1.708l0.613,0.551c0.23,0.183,0.506,0,0.506,0l0.583-0.535l1.572,1.692H38.01z
	 M42.942,9.638L41.424,8l1.518-1.559V9.638z"/>
<g>
	<circle cx="24.697" cy="6.526" r="0.698"/>
	<path d="M24.713,3.171c-2.668,0-4.833,2.164-4.833,4.833s2.164,4.831,4.833,4.831s4.833-2.162,4.833-4.831
		S27.381,3.171,24.713,3.171z M26.323,6.797c0,0,0,0.001,0,0.002c-0.021,0.214-0.083,0.417-0.179,0.598
		c-0.271,0.876-0.819,2.517-1.415,3.585c0,0-1.683-3.723-1.633-4.23h0.005c-0.002-0.036-0.005-0.071-0.005-0.108
		c0-0.894,0.724-1.618,1.617-1.618c0.894,0,1.618,0.724,1.618,1.618C26.331,6.695,26.328,6.746,26.323,6.797L26.323,6.797z"/>
</g>
<g>
	<path fill="#010101" d="M88.559,8.327V9.65c0.371,0,0.645-0.25,0.645-0.615C89.203,8.612,88.895,8.477,88.559,8.327z"/>
	<path fill="#010101" d="M87.385,6.58c0,0.315,0.301,0.545,0.615,0.637V6.015C87.671,6.021,87.385,6.222,87.385,6.58z"/>
	<path fill="#010101" d="M88.275,3.164c-2.673,0-4.84,2.166-4.84,4.839c0,2.673,2.167,4.839,4.84,4.839s4.84-2.166,4.84-4.839
		C93.115,5.33,90.948,3.164,88.275,3.164z M88.559,10.438v0.816H88V10.43c-0.494,0-1.174-0.43-1.524-0.9l0.616-0.559
		C87.312,9.279,87.635,9.564,88,9.635V8.161c-0.744-0.214-1.432-0.701-1.432-1.51c0-0.845,0.645-1.345,1.432-1.381V4.812h0.559V5.27
		c0.601,0.101,1.03,0.394,1.359,0.759l-0.559,0.536c-0.207-0.25-0.465-0.472-0.801-0.508v1.317c0.801,0.287,1.518,0.666,1.518,1.632
		C90.076,9.871,89.396,10.416,88.559,10.438z"/>
</g>
<path fill="#010101" d="M72.824,3.163c-2.674,0-4.84,2.168-4.84,4.84c0,2.673,2.166,4.841,4.84,4.841c2.673,0,4.84-2.168,4.84-4.841
	C77.664,5.331,75.497,3.163,72.824,3.163z M72.574,7.788l0.699-1.363c0,0,0.047-0.285,0.389-0.254l1.941,0.217
	c0,0,0.273,0.068,0.195,0.373c0,0-0.079,0.162-0.185,0.168L73.836,6.86l-0.423,1.299c0,0-0.206-0.029-0.697,0.217
	c0,0-0.544,0.311-1.087,0.053l-0.631-0.232L72.574,7.788z M75.105,8.448c0,0-0.339,0.135-0.651-0.055c0,0-0.532-0.297-0.854-0.24
	c0,0,0.194-0.826,0.909-0.84c0.713-0.012,0.732,0.785,0.732,0.785S75.279,8.317,75.105,8.448z M75.021,9.373
	c-0.482,0-0.965-0.359-1.447-0.359s-0.965,0.359-1.447,0.359c-0.483,0-0.966-0.359-1.448-0.359s-0.966,0.359-1.448,0.359
	c-0.166,0-0.332-0.043-0.498-0.098V8.754c0.166,0.057,0.332,0.1,0.498,0.1c0.482,0,0.966-0.359,1.448-0.359s0.965,0.359,1.448,0.359
	c0.482,0,0.965-0.359,1.447-0.359s0.965,0.359,1.447,0.359c0.481,0,0.963-0.357,1.445-0.359v0.519
	C75.984,9.016,75.503,9.373,75.021,9.373z"/>
<g>
	<path fill="#010101" d="M54.281,7.061l0.016,2.611c0,0.072-0.015,0.137,0.084,0.137h4.321c0.099,0,0.11-0.064,0.11-0.137V7.061
		H54.281z M55.492,9.648h-0.818V9.154h0.818V9.648z M55.492,9.014h-0.818V8.518h0.818V9.014z M55.492,8.375h-0.818V7.881h0.818
		V8.375z M55.492,7.739h-0.818V7.245h0.818V7.739z M56.465,9.648h-0.819V9.154h0.819V9.648z M56.465,9.014h-0.819V8.518h0.819V9.014
		z M56.465,8.375h-0.819V7.881h0.819V8.375z M56.465,7.739h-0.819V7.245h0.819V7.739z M57.438,9.648h-0.819V9.154h0.819V9.648z
		 M57.438,9.014h-0.819V8.518h0.819V9.014z M57.438,8.375h-0.819V7.881h0.819V8.375z M57.438,7.739h-0.819V7.245h0.819V7.739z
		 M58.41,9.648h-0.819V9.154h0.819V9.648z M58.41,9.014h-0.819V8.518h0.819V9.014z M58.41,8.375h-0.819V7.881h0.819V8.375z
		 M58.41,7.739h-0.819V7.245h0.819V7.739z"/>
	<path fill="#010101" d="M56.541,3.163c-2.673,0-4.84,2.168-4.84,4.84c0,2.673,2.167,4.841,4.84,4.841
		c2.674,0,4.84-2.168,4.84-4.841C61.381,5.331,59.215,3.163,56.541,3.163z M59.084,9.676c0,0.186-0.172,0.338-0.382,0.338h-4.321
		c-0.211,0-0.383-0.152-0.383-0.338V6.393c0-0.186,0.172-0.336,0.383-0.336h0.092V5.782c0-0.166,0.135-0.299,0.3-0.299
		s0.3,0.133,0.3,0.299v0.275h2.938V5.782c0-0.166,0.135-0.299,0.301-0.299c0.164,0,0.299,0.133,0.299,0.299v0.275h0.093
		c0.21,0,0.382,0.15,0.382,0.336V9.676z"/>
</g>
</svg>
