<?xml version="1.0" encoding="utf-8"?>
<!-- Generator: Adobe Illustrator 16.0.4, SVG Export Plug-In . SVG Version: 6.00 Build 0)  -->
<!DOCTYPE svg PUBLIC "-//W3C//DTD SVG 1.1//EN" "http://www.w3.org/Graphics/SVG/1.1/DTD/svg11.dtd">
<svg version="1.1" id="Layer_1" xmlns="http://www.w3.org/2000/svg" xmlns:xlink="http://www.w3.org/1999/xlink" x="0px" y="0px"
	 width="83px" height="83px" viewBox="0 0 83 83" enable-background="new 0 0 83 83" xml:space="preserve">
<g>
	<g>
		<path d="M41.753,1.001C19.8,1.001,2.002,18.799,2.002,40.754S19.8,80.508,41.753,80.508c21.958,0,39.756-17.799,39.756-39.754
			S63.711,1.001,41.753,1.001z"/>
	</g>
	<path fill="#FFFFFF" d="M26.757,42.332l12.944-3.362l5.746-11.191c0,0,0.391-2.333,3.197-2.074l15.945,1.772
		c0,0,2.246,0.562,1.598,3.068c0,0-0.646,1.338-1.512,1.383L50.07,31.366l-3.48,10.672c0,0-1.682-0.261-5.723,1.771
		c0,0-4.473,2.549-8.925,0.432L26.757,42.332z"/>
	<path fill="#FFFFFF" d="M71.678,44.789c-3.959,0.008-7.916,2.949-11.875,2.949c-3.961,0-7.926-2.949-11.887-2.949
		c-3.966,0-7.928,2.949-11.892,2.949s-7.927-2.949-11.891-2.949c-3.963,0-7.926,2.949-11.889,2.949c-1.363,0-2.726-0.351-4.09-0.81
		v4.272c1.364,0.456,2.727,0.807,4.09,0.807c3.963,0,7.925-2.949,11.889-2.949s7.927,2.949,11.891,2.949s7.926-2.949,11.892-2.949
		c3.961,0,7.926,2.949,11.887,2.949c3.959,0,7.916-2.938,11.875-2.947V44.789z"/>
	<path fill="#FFFFFF" d="M48.131,41.985c0,0,1.605-6.785,7.467-6.896c5.861-0.114,6.014,6.438,6.014,6.438s0.311,1.808-1.115,2.878
		c0,0-2.785,1.113-5.352-0.449C55.145,43.956,50.773,41.52,48.131,41.985z"/>
</g>
</svg>
